Coordinates
version=1
nRows=9
nColumns=36
inDegrees=yes

Units are S.I. units (second, meters, Newtons, ...)
If the header above contains a line with 'inDegrees', this indicates whether rotational values are in degrees (yes) or radians (no).

endheader
time	pelvis_tilt	pelvis_list	pelvis_rotation	pelvis_tx	pelvis_ty	pelvis_tz	hip_flexion_r	hip_adduction_r	hip_rotation_r	knee_angle_r	knee_angle_r_beta	ankle_angle_r	subtalar_angle_r	mtp_angle_r	hip_flexion_l	hip_adduction_l	hip_rotation_l	knee_angle_l	knee_angle_l_beta	ankle_angle_l	subtalar_angle_l	mtp_angle_l	lumbar_extension	lumbar_bending	lumbar_rotation	arm_flex_r	arm_add_r	arm_rot_r	elbow_flex_r	pro_sup_r	arm_flex_l	arm_add_l	arm_rot_l	elbow_flex_l	pro_sup_l
      0.00000000	      1.54731053	     -1.51769472	      0.19065771	     -0.78033313	      1.32776167	     -0.04817876	     -3.73345265	      2.39470289	      7.82479908	      9.34271837	      0.16306120	      2.20500308	    -13.83489536	     -5.76488108	     -7.16414130	     -3.64175294	      5.56006009	      2.66603629	      0.04653111	      8.78663961	     -3.38038143	     -5.76488108	     -8.90494001	      1.88577786	     -1.93395082	     28.09308466	     -0.48164585	     26.34349344	     87.22333343	     95.97526566	     25.78420450	     -1.17968212	     16.77106888	     91.46562835	     97.04661574
      0.01666670	     -1.36402320	     -1.60703352	     -0.00965103	     -0.77784688	      1.31874623	     -0.04902032	     -1.10601748	      2.23294886	      9.23149568	      8.42058309	      0.14696690	      4.69975503	     -9.68121604	     -6.11800284	     -3.76378283	     -3.45240916	      7.02305756	      2.31857693	      0.04046680	      6.93002298	     -2.65056068	     -6.11800284	     -3.89926613	      2.70753619	     -1.83069779	     27.77204506	     -0.84369875	     25.25921517	     85.58207886	     91.91971669	     24.15000279	     -1.22093116	     14.55512421	     90.10076802	     91.00366276
      0.03333330	     -2.21499940	     -1.41728835	     -0.36749447	     -0.77716291	      1.31561629	     -0.04875070	     -0.66013593	      1.73440974	      9.05266278	      7.58355151	      0.13235794	      5.86778649	     -8.23619164	     -6.48706096	     -3.07424157	     -3.38630666	      6.84565337	      1.97970549	      0.03455238	      5.90638205	     -1.81959021	     -6.48706096	     -2.60178125	      2.60785156	     -2.17753753	     26.66697149	     -1.44591039	     24.38555088	     85.66946313	     92.64646184	     23.31106757	     -1.98734088	     12.38093139	     90.53073637	     86.95510725
      0.05000000	     -2.20672846	     -1.19985616	     -0.82937330	     -0.77775593	      1.31225016	     -0.04770669	     -0.73998835	      1.44500454	      9.57525433	      7.32074935	      0.12777118	      6.90631326	     -7.83856594	     -6.60453783	     -3.60677172	     -3.17644760	      7.02649390	      1.36251957	      0.02378045	      5.87051062	     -1.84073308	     -6.60453783	     -2.46687893	      2.02912633	     -1.71068145	     25.40112076	     -2.43553705	     23.85934225	     85.33414876	     91.14747861	     22.05668663	     -2.79753938	     11.56670016	     89.60582745	     84.39690580
      0.06666670	     -2.21672833	     -1.11921648	     -1.38395014	     -0.77791721	      1.31528301	     -0.04753829	     -0.73939395	      1.32101225	      9.86154668	      7.07325819	      0.12345164	      7.78965690	     -7.44295276	     -6.88967658	     -3.96668250	     -3.11224245	      7.01343220	      0.94921463	      0.01656692	      6.13548229	     -2.00119254	     -6.88967658	     -2.37241940	      1.82991679	     -1.44494228	     23.87971520	     -2.89719912	     23.71072425	     83.08927964	     86.09441084	     20.48753113	     -3.05398261	     11.66364453	     86.92401072	     79.39463576
      0.08333330	     -2.13408263	     -1.12573212	     -1.84076871	     -0.78425400	      1.31223921	     -0.04204682	     -0.54951827	      1.54604413	     10.39475105	      7.04597869	      0.12297553	      8.20374874	     -7.59340615	     -6.90726997	     -4.15648767	     -3.22124209	      7.38622743	      0.79530812	      0.01388075	      6.17674255	     -2.91578810	     -6.90726997	     -2.79845777	      1.47149564	     -0.91739102	     22.69177361	     -3.19743624	     22.75847412	     80.35761356	     84.51012580	     19.03121950	     -3.58489163	     11.61348406	     85.97268770	     77.77253982
      0.10000000	     -1.79354636	     -1.20135467	     -2.12861347	     -0.78420251	      1.31584046	     -0.04220735	     -0.90015681	      1.73596049	     10.74280527	      6.73506928	      0.11754913	      8.59934469	     -7.31462291	     -7.15791843	     -4.55382959	     -3.40689535	      7.45168979	      0.74674552	      0.01303317	      6.53577207	     -2.78949963	     -7.15791843	     -3.17055149	      1.10118365	     -0.80248954	     21.18399265	     -3.32238927	     21.96238740	     76.70397337	     78.56876524	     17.14525484	     -4.18729178	     11.37883898	     83.65762826	     72.16071736
      0.11666670	     -1.51509500	     -1.27029845	     -2.29300254	     -0.78479131	      1.31272463	     -0.04175909	     -0.99161426	      1.95982227	     11.08731346	      6.93210176	      0.12098800	      8.86866147	     -7.44744525	     -7.19926409	     -4.79577281	     -3.54854707	      7.73752377	      0.79087262	      0.01380333	      6.75773268	     -3.35572932	     -7.19926409	     -3.87781681	      0.93930358	     -1.14243186	     20.39538158	     -3.39265661	     21.86733790	     73.35926780	     80.36159990	     15.21826432	     -4.40808847	     10.57942169	     81.95929460	     70.10932321
      0.13333330	     -1.18287982	     -1.37434288	     -2.40044269	     -0.78457107	      1.31325555	     -0.04193155	     -1.31020345	      2.12386454	     11.21465987	      6.89773953	      0.12038827	      9.18143830	     -7.36188566	     -7.27931735	     -5.08166937	     -3.72305866	      7.66485527	      0.82188633	      0.01434462	      7.00085207	     -3.49489112	     -7.27931735	     -4.33783010	      0.81112271	     -1.27215343	     18.35781290	     -3.87079878	     20.49995252	     70.89103200	     77.45974509	     13.63564412	     -4.72293895	      9.69351755	     78.63867868	     68.10936713
